<svg width="154" height="23" viewBox="0 0 154 23" fill="none" xmlns="http://www.w3.org/2000/svg">
<path d="M81.8896 9C81.8896 11.3081 80.6061 13.4441 79.2576 15.0414C78.5896 15.8327 77.9203 16.4743 77.418 16.918C77.2079 17.1036 77.0276 17.254 76.8897 17.3656C76.7517 17.254 76.5714 17.1036 76.3613 16.918C75.859 16.4743 75.1897 15.8327 74.5217 15.0414C73.1732 13.4441 71.8896 11.3081 71.8896 9C71.8896 6.69191 73.1732 4.55589 74.5217 2.95858C75.1897 2.16732 75.859 1.52568 76.3613 1.08202C76.5714 0.896438 76.7517 0.746034 76.8896 0.634354C77.0276 0.746034 77.2079 0.896438 77.418 1.08202C77.9203 1.52568 78.5896 2.16732 79.2576 2.95858C80.6061 4.55589 81.8896 6.69191 81.8896 9Z" stroke="white"/>
<path d="M74.7698 8.75694C76.4448 10.4319 77.0984 12.8714 77.3177 14.9582C77.4264 15.993 77.4261 16.9203 77.3986 17.5887C77.3874 17.8586 77.3719 18.0856 77.3574 18.2595C77.1835 18.274 76.9565 18.2896 76.6866 18.3007C76.0182 18.3283 75.0909 18.3285 74.0561 18.2198C71.9693 18.0005 69.5297 17.3469 67.8548 15.672C66.1799 13.997 65.5262 11.5575 65.307 9.47068C65.1982 8.4359 65.1985 7.5086 65.2261 6.84021C65.2372 6.57029 65.2528 6.34332 65.2672 6.1694C65.4412 6.15491 65.6681 6.13935 65.9381 6.12821C66.6065 6.10064 67.5337 6.10039 68.5685 6.20911C70.6553 6.42838 73.0949 7.08201 74.7698 8.75694Z" stroke="white"/>
<path d="M80.5364 8.75694C78.8614 10.4319 78.2078 12.8714 77.9886 14.9582C77.8798 15.993 77.8801 16.9203 77.9077 17.5887C77.9188 17.8586 77.9343 18.0856 77.9488 18.2595C78.1228 18.274 78.3497 18.2896 78.6196 18.3007C79.288 18.3283 80.2153 18.3285 81.2501 18.2198C83.3369 18.0005 85.7765 17.3469 87.4514 15.672C89.1264 13.997 89.78 11.5575 89.9992 9.47068C90.108 8.4359 90.1077 7.5086 90.0801 6.84021C90.069 6.57029 90.0535 6.34332 90.039 6.1694C89.865 6.15491 89.6381 6.13935 89.3682 6.12821C88.6998 6.10064 87.7725 6.10039 86.7377 6.20911C84.6509 6.42838 82.2113 7.08201 80.5364 8.75694Z" stroke="white"/>
<path d="M52.5 12H0.5" stroke="white"/>
<path d="M154 12L102 12" stroke="white"/>
</svg>
