<svg width="96" height="29" viewBox="0 0 96 29" fill="none" xmlns="http://www.w3.org/2000/svg">
<path d="M1.54 25.8801H1.6C1.656 25.8801 1.708 25.8561 1.756 25.8081C1.804 25.7601 1.844 25.7041 1.876 25.6401C1.916 25.5761 1.944 25.5081 1.96 25.4361C1.976 25.3561 1.984 25.2841 1.984 25.2201V18.8361C1.984 18.7801 1.976 18.7161 1.96 18.6441C1.944 18.5721 1.916 18.5041 1.876 18.4401C1.844 18.3681 1.8 18.3121 1.744 18.2721C1.696 18.2241 1.64 18.2001 1.576 18.2001H1.516V18.0801H3.484C4.228 18.0801 4.808 18.2441 5.224 18.5721C5.648 18.9001 5.86 19.3361 5.86 19.8801C5.86 20.1121 5.82 20.3201 5.74 20.5041C5.66 20.6881 5.556 20.8521 5.428 20.9961C5.308 21.1401 5.176 21.2641 5.032 21.3681C4.888 21.4641 4.752 21.5441 4.624 21.6081C4.96 21.6721 5.24 21.7801 5.464 21.9321C5.688 22.0841 5.868 22.2601 6.004 22.4601C6.148 22.6521 6.248 22.8601 6.304 23.0841C6.36 23.3081 6.388 23.5281 6.388 23.7441C6.388 24.1601 6.312 24.5121 6.16 24.8001C6.008 25.0801 5.804 25.3121 5.548 25.4961C5.3 25.6721 5.012 25.8001 4.684 25.8801C4.364 25.9601 4.032 26.0001 3.688 26.0001H1.54V25.8801ZM5.572 23.8161C5.508 23.2001 5.3 22.7241 4.948 22.3881C4.596 22.0521 4.1 21.8841 3.46 21.8841H2.788V25.6041H3.484C4.132 25.6041 4.64 25.4601 5.008 25.1721C5.384 24.8761 5.572 24.4681 5.572 23.9481V23.8161ZM5.08 19.9881C5.056 19.5241 4.892 19.1561 4.588 18.8841C4.292 18.6121 3.892 18.4761 3.388 18.4761H2.788V21.5001H3.412C3.748 21.5001 4.02 21.4561 4.228 21.3681C4.444 21.2801 4.616 21.1681 4.744 21.0321C4.872 20.8881 4.96 20.7321 5.008 20.5641C5.056 20.3961 5.08 20.2321 5.08 20.0721V19.9881ZM8.13109 25.8801H8.19109C8.25509 25.8801 8.31109 25.8601 8.35909 25.8201C8.40709 25.7721 8.44709 25.7161 8.47909 25.6521C8.51909 25.5881 8.54709 25.5201 8.56309 25.4481C8.58709 25.3761 8.59909 25.3081 8.59909 25.2441V18.8241C8.59909 18.7681 8.58709 18.7041 8.56309 18.6321C8.54709 18.5601 8.51909 18.4921 8.47909 18.4281C8.44709 18.3641 8.40709 18.3121 8.35909 18.2721C8.31109 18.2241 8.25509 18.2001 8.19109 18.2001H8.13109V18.0801H12.7511V19.1961H12.6311C12.6151 19.0121 12.5431 18.8521 12.4151 18.7161C12.2871 18.5721 12.0871 18.5001 11.8151 18.5001H9.40309V21.5361H11.3951C11.5791 21.5361 11.7311 21.4801 11.8511 21.3681C11.9791 21.2561 12.0431 21.1241 12.0431 20.9721H12.1631V22.4721H12.0431C12.0431 22.3281 11.9831 22.2041 11.8631 22.1001C11.7431 21.9961 11.5871 21.9441 11.3951 21.9441H9.40309V25.5801H12.0311C12.1831 25.5801 12.3151 25.5441 12.4271 25.4721C12.5391 25.4001 12.6311 25.3161 12.7031 25.2201C12.7831 25.1161 12.8391 25.0081 12.8711 24.8961C12.9111 24.7761 12.9311 24.6761 12.9311 24.5961H13.0511V26.0001H8.13109V25.8801ZM18.5009 18.3921C17.9089 18.3921 17.3929 18.5001 16.9529 18.7161C16.5209 18.9241 16.1609 19.2001 15.8729 19.5441C15.5849 19.8801 15.3689 20.2601 15.2249 20.6841C15.0889 21.1081 15.0209 21.5281 15.0209 21.9441C15.0209 22.4161 15.1129 22.8801 15.2969 23.3361C15.4809 23.7841 15.7329 24.1841 16.0529 24.5361C16.3809 24.8801 16.7609 25.1601 17.1929 25.3761C17.6249 25.5841 18.0929 25.6881 18.5969 25.6881C18.7409 25.6881 18.9089 25.6721 19.1009 25.6401C19.3009 25.6081 19.4969 25.5481 19.6889 25.4601C19.8809 25.3641 20.0569 25.2321 20.2169 25.0641C20.3849 24.8961 20.5129 24.6761 20.6009 24.4041H20.7209V25.7361C20.6009 25.7361 20.4729 25.7521 20.3369 25.7841C20.2089 25.8161 20.0649 25.8521 19.9049 25.8921C19.6969 25.9481 19.4649 26.0001 19.2089 26.0481C18.9609 26.0961 18.6969 26.1201 18.4169 26.1201C17.7209 26.1201 17.1089 26.0001 16.5809 25.7601C16.0529 25.5201 15.6129 25.2081 15.2609 24.8241C14.9089 24.4401 14.6449 24.0081 14.4689 23.5281C14.2929 23.0401 14.2049 22.5481 14.2049 22.0521C14.2049 21.5561 14.2929 21.0641 14.4689 20.5761C14.6449 20.0881 14.9129 19.6521 15.2729 19.2681C15.6329 18.8761 16.0849 18.5601 16.6289 18.3201C17.1729 18.0801 17.8129 17.9601 18.5489 17.9601C18.8129 17.9601 19.0489 17.9841 19.2569 18.0321C19.4729 18.0801 19.6649 18.1281 19.8329 18.1761C19.9529 18.2161 20.0609 18.2481 20.1569 18.2721C20.2609 18.2881 20.3609 18.2961 20.4569 18.2961V19.6281H20.3369C20.2889 19.3801 20.2009 19.1761 20.0729 19.0161C19.9449 18.8481 19.7929 18.7201 19.6169 18.6321C19.4489 18.5441 19.2649 18.4841 19.0649 18.4521C18.8729 18.4121 18.6849 18.3921 18.5009 18.3921ZM27.2614 25.8801H27.3214C27.3774 25.8801 27.4294 25.8601 27.4774 25.8201C27.5254 25.7721 27.5654 25.7161 27.5974 25.6521C27.6374 25.5801 27.6654 25.5081 27.6814 25.4361C27.6974 25.3561 27.7054 25.2841 27.7054 25.2201V21.9561H23.8654V25.2201C23.8654 25.2841 23.8734 25.3561 23.8894 25.4361C23.9054 25.5081 23.9294 25.5761 23.9614 25.6401C23.9934 25.7041 24.0294 25.7601 24.0694 25.8081C24.1174 25.8561 24.1734 25.8801 24.2374 25.8801H24.2974V26.0001H22.6174V25.8801H22.6774C22.7334 25.8801 22.7854 25.8601 22.8334 25.8201C22.8814 25.7721 22.9214 25.7161 22.9534 25.6521C22.9934 25.5801 23.0214 25.5081 23.0374 25.4361C23.0534 25.3561 23.0614 25.2841 23.0614 25.2201V18.8241C23.0614 18.7681 23.0534 18.7041 23.0374 18.6321C23.0214 18.5601 22.9974 18.4921 22.9654 18.4281C22.9334 18.3641 22.8934 18.3121 22.8454 18.2721C22.7974 18.2241 22.7414 18.2001 22.6774 18.2001H22.6174V18.0801H24.2974V18.2001H24.2374C24.1734 18.2001 24.1174 18.2241 24.0694 18.2721C24.0214 18.3121 23.9814 18.3641 23.9494 18.4281C23.9254 18.4921 23.9054 18.5601 23.8894 18.6321C23.8734 18.7041 23.8654 18.7681 23.8654 18.8241V21.5361H27.7054V18.8241C27.7054 18.7681 27.6974 18.7041 27.6814 18.6321C27.6654 18.5601 27.6414 18.4921 27.6094 18.4281C27.5774 18.3641 27.5374 18.3121 27.4894 18.2721C27.4414 18.2241 27.3854 18.2001 27.3214 18.2001H27.2614V18.0801H28.9414V18.2001H28.8814C28.8174 18.2001 28.7614 18.2241 28.7134 18.2721C28.6654 18.3121 28.6254 18.3641 28.5934 18.4281C28.5694 18.4921 28.5494 18.5601 28.5334 18.6321C28.5174 18.7041 28.5094 18.7681 28.5094 18.8241V25.2201C28.5094 25.2841 28.5174 25.3561 28.5334 25.4361C28.5574 25.5081 28.5854 25.5761 28.6174 25.6401C28.6494 25.7041 28.6854 25.7601 28.7254 25.8081C28.7734 25.8561 28.8254 25.8801 28.8814 25.8801H28.9414V26.0001H27.2614V25.8801ZM35.2423 25.8801H35.3023C35.4943 25.8801 35.5903 25.7921 35.5903 25.6161C35.5903 25.5521 35.5783 25.4841 35.5543 25.4121L34.4743 22.4961H32.3743L31.3303 25.3641C31.3063 25.4281 31.2943 25.4881 31.2943 25.5441C31.2943 25.6481 31.3223 25.7321 31.3783 25.7961C31.4343 25.8521 31.4943 25.8801 31.5583 25.8801H31.6183V26.0001H30.2863V25.8801H30.3463C30.4503 25.8801 30.5503 25.8201 30.6463 25.7001C30.7503 25.5721 30.8343 25.4241 30.8983 25.2561L33.6463 17.9361L36.3343 25.1841C36.3903 25.3441 36.4663 25.5001 36.5623 25.6521C36.6663 25.8041 36.7983 25.8801 36.9583 25.8801H37.0183V26.0001H35.2423V25.8801ZM32.4943 22.0881H34.3423L33.4183 19.5801L32.4943 22.0881ZM42.2936 25.8801H42.3536C42.4096 25.8801 42.4616 25.8561 42.5096 25.8081C42.5576 25.7601 42.5976 25.7041 42.6296 25.6401C42.6696 25.5761 42.6976 25.5081 42.7136 25.4361C42.7296 25.3561 42.7376 25.2841 42.7376 25.2201V18.8361C42.7376 18.7801 42.7296 18.7161 42.7136 18.6441C42.6976 18.5721 42.6696 18.5041 42.6296 18.4401C42.5976 18.3681 42.5536 18.3121 42.4976 18.2721C42.4496 18.2241 42.3936 18.2001 42.3296 18.2001H42.2696V18.0801H44.2376C44.9816 18.0801 45.5616 18.2441 45.9776 18.5721C46.4016 18.9001 46.6136 19.3361 46.6136 19.8801C46.6136 20.1121 46.5736 20.3201 46.4936 20.5041C46.4136 20.6881 46.3096 20.8521 46.1816 20.9961C46.0616 21.1401 45.9296 21.2641 45.7856 21.3681C45.6416 21.4641 45.5056 21.5441 45.3776 21.6081C45.7136 21.6721 45.9936 21.7801 46.2176 21.9321C46.4416 22.0841 46.6216 22.2601 46.7576 22.4601C46.9016 22.6521 47.0016 22.8601 47.0576 23.0841C47.1136 23.3081 47.1416 23.5281 47.1416 23.7441C47.1416 24.1601 47.0656 24.5121 46.9136 24.8001C46.7616 25.0801 46.5576 25.3121 46.3016 25.4961C46.0536 25.6721 45.7656 25.8001 45.4376 25.8801C45.1176 25.9601 44.7856 26.0001 44.4416 26.0001H42.2936V25.8801ZM46.3256 23.8161C46.2616 23.2001 46.0536 22.7241 45.7016 22.3881C45.3496 22.0521 44.8536 21.8841 44.2136 21.8841H43.5416V25.6041H44.2376C44.8856 25.6041 45.3936 25.4601 45.7616 25.1721C46.1376 24.8761 46.3256 24.4681 46.3256 23.9481V23.8161ZM45.8336 19.9881C45.8096 19.5241 45.6456 19.1561 45.3416 18.8841C45.0456 18.6121 44.6456 18.4761 44.1416 18.4761H43.5416V21.5001H44.1656C44.5016 21.5001 44.7736 21.4561 44.9816 21.3681C45.1976 21.2801 45.3696 21.1681 45.4976 21.0321C45.6256 20.8881 45.7136 20.7321 45.7616 20.5641C45.8096 20.3961 45.8336 20.2321 45.8336 20.0721V19.9881ZM52.6868 18.3921C52.0948 18.3921 51.5788 18.5001 51.1388 18.7161C50.7068 18.9241 50.3468 19.2001 50.0588 19.5441C49.7708 19.8801 49.5548 20.2601 49.4108 20.6841C49.2748 21.1081 49.2068 21.5281 49.2068 21.9441C49.2068 22.4161 49.2988 22.8801 49.4828 23.3361C49.6668 23.7841 49.9188 24.1841 50.2388 24.5361C50.5668 24.8801 50.9468 25.1601 51.3788 25.3761C51.8108 25.5841 52.2788 25.6881 52.7828 25.6881C52.9268 25.6881 53.0948 25.6721 53.2868 25.6401C53.4868 25.6081 53.6828 25.5481 53.8748 25.4601C54.0668 25.3641 54.2428 25.2321 54.4028 25.0641C54.5708 24.8961 54.6988 24.6761 54.7868 24.4041H54.9068V25.7361C54.7868 25.7361 54.6588 25.7521 54.5228 25.7841C54.3948 25.8161 54.2508 25.8521 54.0908 25.8921C53.8828 25.9481 53.6508 26.0001 53.3948 26.0481C53.1468 26.0961 52.8828 26.1201 52.6028 26.1201C51.9068 26.1201 51.2948 26.0001 50.7668 25.7601C50.2388 25.5201 49.7988 25.2081 49.4468 24.8241C49.0948 24.4401 48.8308 24.0081 48.6548 23.5281C48.4788 23.0401 48.3908 22.5481 48.3908 22.0521C48.3908 21.5561 48.4788 21.0641 48.6548 20.5761C48.8308 20.0881 49.0988 19.6521 49.4588 19.2681C49.8188 18.8761 50.2708 18.5601 50.8148 18.3201C51.3588 18.0801 51.9988 17.9601 52.7348 17.9601C52.9988 17.9601 53.2348 17.9841 53.4428 18.0321C53.6588 18.0801 53.8508 18.1281 54.0188 18.1761C54.1388 18.2161 54.2468 18.2481 54.3428 18.2721C54.4468 18.2881 54.5468 18.2961 54.6428 18.2961V19.6281H54.5228C54.4748 19.3801 54.3868 19.1761 54.2588 19.0161C54.1308 18.8481 53.9788 18.7201 53.8028 18.6321C53.6348 18.5441 53.4508 18.4841 53.2508 18.4521C53.0588 18.4121 52.8708 18.3921 52.6868 18.3921ZM56.6594 25.8801H56.7194C56.7834 25.8801 56.8394 25.8601 56.8874 25.8201C56.9354 25.7721 56.9754 25.7161 57.0074 25.6521C57.0474 25.5881 57.0754 25.5201 57.0914 25.4481C57.1154 25.3761 57.1274 25.3081 57.1274 25.2441V18.8241C57.1274 18.7681 57.1154 18.7041 57.0914 18.6321C57.0754 18.5601 57.0474 18.4921 57.0074 18.4281C56.9754 18.3641 56.9354 18.3121 56.8874 18.2721C56.8394 18.2241 56.7834 18.2001 56.7194 18.2001H56.6594V18.0801H61.2794V19.1961H61.1594C61.1434 19.0121 61.0714 18.8521 60.9434 18.7161C60.8154 18.5721 60.6154 18.5001 60.3434 18.5001H57.9314V21.5361H59.9234C60.1074 21.5361 60.2594 21.4801 60.3794 21.3681C60.5074 21.2561 60.5714 21.1241 60.5714 20.9721H60.6914V22.4721H60.5714C60.5714 22.3281 60.5114 22.2041 60.3914 22.1001C60.2714 21.9961 60.1154 21.9441 59.9234 21.9441H57.9314V25.5801H60.5594C60.7114 25.5801 60.8434 25.5441 60.9554 25.4721C61.0674 25.4001 61.1594 25.3161 61.2314 25.2201C61.3114 25.1161 61.3674 25.0081 61.3994 24.8961C61.4394 24.7761 61.4594 24.6761 61.4594 24.5961H61.5794V26.0001H56.6594V25.8801ZM64.8716 25.8801H64.9316V26.0001H63.2036V25.8801H63.2636C63.3276 25.8801 63.3836 25.8601 63.4316 25.8201C63.4796 25.7721 63.5196 25.7161 63.5516 25.6521C63.5916 25.5881 63.6196 25.5201 63.6356 25.4481C63.6516 25.3761 63.6596 25.3081 63.6596 25.2441V18.8241C63.6596 18.7681 63.6516 18.7041 63.6356 18.6321C63.6196 18.5601 63.5916 18.4921 63.5516 18.4281C63.5196 18.3641 63.4796 18.3121 63.4316 18.2721C63.3836 18.2241 63.3276 18.2001 63.2636 18.2001H63.2036V18.0801H67.8236V19.3521H67.7036C67.7036 19.0641 67.6396 18.8521 67.5116 18.7161C67.3916 18.5721 67.1996 18.5001 66.9356 18.5001H64.4756V25.2441C64.4756 25.3081 64.4836 25.3761 64.4996 25.4481C64.5156 25.5201 64.5396 25.5881 64.5716 25.6521C64.6116 25.7161 64.6556 25.7721 64.7036 25.8201C64.7516 25.8601 64.8076 25.8801 64.8716 25.8801ZM74.5731 25.5801V27.0801H74.4531C74.4451 26.9761 74.4171 26.8601 74.3691 26.7321C74.3211 26.6041 74.2531 26.4841 74.1651 26.3721C74.0851 26.2681 73.9891 26.1801 73.8771 26.1081C73.7651 26.0361 73.6411 26.0001 73.5051 26.0001H67.9731C67.8371 26.0001 67.7131 26.0361 67.6011 26.1081C67.4891 26.1881 67.3891 26.2801 67.3011 26.3841C67.2211 26.4961 67.1531 26.6161 67.0971 26.7441C67.0491 26.8721 67.0211 26.9841 67.0131 27.0801H66.8931V25.5801H67.4211C67.6771 25.5801 67.8571 25.4321 67.9611 25.1361L70.7211 17.9001L73.5051 25.1001C73.5611 25.2201 73.6371 25.3321 73.7331 25.4361C73.8291 25.5321 73.9411 25.5801 74.0691 25.5801H74.5731ZM68.2251 25.5801H72.8451L70.5291 19.6161L68.2251 25.5801ZM80.8526 25.8801H80.9126C81.1046 25.8801 81.2006 25.7921 81.2006 25.6161C81.2006 25.5521 81.1886 25.4841 81.1646 25.4121L80.0846 22.4961H77.9846L76.9406 25.3641C76.9166 25.4281 76.9046 25.4881 76.9046 25.5441C76.9046 25.6481 76.9326 25.7321 76.9886 25.7961C77.0446 25.8521 77.1046 25.8801 77.1686 25.8801H77.2286V26.0001H75.8966V25.8801H75.9566C76.0606 25.8801 76.1606 25.8201 76.2566 25.7001C76.3606 25.5721 76.4446 25.4241 76.5086 25.2561L79.2566 17.9361L81.9446 25.1841C82.0006 25.3441 82.0766 25.5001 82.1726 25.6521C82.2766 25.8041 82.4086 25.8801 82.5686 25.8801H82.6286V26.0001H80.8526V25.8801ZM78.1046 22.0881H79.9526L79.0286 19.5801L78.1046 22.0881Z" fill="white"/>
<path d="M43.8464 5.66549C43.8464 7.07784 43.1738 8.39048 42.4598 9.37876C42.1067 9.86766 41.7528 10.2641 41.4877 10.5378C41.4513 10.5754 41.4166 10.6106 41.3839 10.6433C41.3512 10.6106 41.3165 10.5754 41.2801 10.5378C41.015 10.2641 40.6611 9.86766 40.3079 9.37876C39.594 8.39048 38.9214 7.07784 38.9214 5.66549C38.9214 4.25314 39.594 2.9405 40.3079 1.95222C40.6611 1.46332 41.015 1.06688 41.2801 0.793181C41.3165 0.755615 41.3512 0.720414 41.3839 0.687657C41.4166 0.720414 41.4513 0.755615 41.4877 0.793181C41.7528 1.06688 42.1067 1.46332 42.4598 1.95222C43.1738 2.9405 43.8464 4.25314 43.8464 5.66549Z" stroke="white"/>
<path d="M40.1073 5.66997C40.9636 6.67078 41.3085 8.14481 41.4249 9.43955C41.4823 10.0777 41.4822 10.6502 41.4676 11.063C41.4647 11.1441 41.4613 11.2188 41.4577 11.2864C41.3998 11.2907 41.3359 11.2947 41.2665 11.298C40.9133 11.315 40.4234 11.3152 39.8774 11.2481C38.7695 11.1121 37.5082 10.709 36.6518 9.70824C35.7955 8.70744 35.4506 7.2334 35.3342 5.93866C35.2768 5.30056 35.2769 4.72802 35.2915 4.31523C35.2944 4.23415 35.2978 4.15942 35.3014 4.09176C35.3593 4.08753 35.4232 4.08354 35.4926 4.08019C35.8458 4.06317 36.3357 4.06304 36.8818 4.13009C37.9896 4.26613 39.2509 4.66916 40.1073 5.66997Z" stroke="white"/>
<path d="M43.4826 5.66997C42.6262 6.67078 42.2814 8.14481 42.1649 9.43955C42.1076 10.0777 42.1077 10.6502 42.1223 11.063C42.1251 11.1441 42.1285 11.2188 42.1322 11.2864C42.19 11.2907 42.254 11.2947 42.3234 11.298C42.6766 11.315 43.1665 11.3152 43.7125 11.2481C44.8204 11.1121 46.0816 10.709 46.938 9.70824C47.7944 8.70744 48.1392 7.2334 48.2556 5.93866C48.313 5.30056 48.3129 4.72802 48.2983 4.31523C48.2955 4.23415 48.2921 4.15942 48.2884 4.09176C48.2305 4.08753 48.1666 4.08354 48.0972 4.08019C47.744 4.06317 47.2541 4.06304 46.7081 4.13009C45.6002 4.26613 44.3389 4.66916 43.4826 5.66997Z" stroke="white"/>
<path d="M28.3583 8.08264H0" stroke="white"/>
<path d="M82.9999 8.08344L54.6416 8.08344" stroke="white"/>
</svg>
